<?xml version="1.0" encoding="UTF-8"?>
<svg id="Layer_1" data-name="Layer 1" xmlns="http://www.w3.org/2000/svg" viewBox="0 0 262.62 182.17">
  <defs>
    <style>
      .cls-1 {
        fill: #fff;
      }

      .cls-2 {
        fill: #335da3;
      }

      .cls-3 {
        fill: #f3725f;
      }
    </style>
  </defs>
  <path class="cls-3" d="m105.76,122.43s-20.24.46-19.64-15.54c.61-15.99-2.61-43.97,26.46-46.2,11.92-.91,24.6-1.56,34.79-.11l7.34,1.66,5.73,2.06c8.27,4.7,13.9,11.08,14.68,23.29,1.92,30.28,11.64,33.36-69.38,34.84Z"/>
  <g>
    <path class="cls-2" d="m155.8,99.42l-45.82.72c-4.8.07-8.76-3.76-8.83-8.56h0c-.07-4.8,3.76-8.76,8.56-8.83l45.82-.72c4.8-.07,8.76,3.76,8.83,8.56h0c.07,4.8-3.76,8.76-8.56,8.83Z"/>
    <path class="cls-1" d="m119.48,90.63c-.3,1.51-1.76,2.5-3.28,2.2-1.51-.3-2.5-1.76-2.2-3.28.3-1.51,1.76-2.5,3.28-2.2s2.5,1.76,2.2,3.28Z"/>
    <path class="cls-1" d="m151.5,90.12c-.3,1.51-1.76,2.5-3.28,2.2-1.51-.3-2.5-1.76-2.2-3.28.3-1.51,1.76-2.5,3.28-2.2s2.5,1.76,2.2,3.28Z"/>
    <path class="cls-1" d="m126.86,90.68c.21-.03.34.94,1.24,2.06.44.55,1.09,1.12,1.91,1.53.82.42,1.82.64,2.82.5,1-.17,1.89-.68,2.55-1.32.66-.64,1.11-1.37,1.36-2.03.53-1.33.37-2.3.57-2.34.08-.02.22.2.33.65.11.45.15,1.13-.04,1.95-.18.82-.62,1.75-1.38,2.59-.75.83-1.87,1.55-3.2,1.77-1.34.19-2.62-.16-3.58-.73-.97-.57-1.67-1.33-2.09-2.06-.42-.73-.6-1.39-.62-1.85-.03-.46.04-.71.12-.72Z"/>
  </g>
</svg>